<svg width="67" height="8" viewBox="0 0 67 8" fill="none" xmlns="http://www.w3.org/2000/svg">
<path d="M1.16003 7.00001C1.05003 7.00001 0.950005 6.96701 0.880005 6.90101C0.820005 6.83501 0.780029 6.74801 0.780029 6.64001V1.01501C0.780029 0.907007 0.820005 0.820007 0.880005 0.754007C0.950005 0.688007 1.05003 0.655008 1.16003 0.655008H2.92004C3.93004 0.655008 4.71002 0.931007 5.27002 1.48301C5.82002 2.02901 6.09998 2.80901 6.09998 3.82301C6.09998 4.83701 5.82002 5.62001 5.27002 6.17201C4.71002 6.72401 3.92004 7.00001 2.92004 7.00001H1.16003ZM2.87 6.37001C4.52 6.37001 5.33997 5.52101 5.33997 3.82301C5.33997 2.13101 4.52 1.28501 2.87 1.28501H1.52002V6.37001H2.87ZM13.21 6.57701C13.23 6.62501 13.24 6.67601 13.24 6.73001C13.24 6.82001 13.21 6.89501 13.14 6.95501C13.07 7.01501 12.99 7.04501 12.89 7.04501C12.74 7.04501 12.64 6.97301 12.58 6.82901L11.9399 5.37101H8.55005L7.90002 6.82901C7.84002 6.97301 7.72996 7.04501 7.57996 7.04501C7.48996 7.04501 7.39996 7.01501 7.32996 6.95501C7.25996 6.88901 7.21997 6.81101 7.21997 6.72101C7.21997 6.67301 7.24001 6.62501 7.26001 6.57701L9.82996 0.853008C9.86996 0.769008 9.92 0.706007 10 0.664007C10.07 0.622007 10.15 0.601007 10.23 0.601007C10.32 0.601007 10.4 0.625008 10.47 0.673008C10.54 0.715008 10.6 0.775008 10.63 0.853008L13.21 6.57701ZM11.67 4.75901L10.24 1.52801L8.81995 4.75901H11.67ZM15.9 7.04501C15.78 7.04501 15.69 7.01201 15.62 6.94601C15.55 6.87401 15.52 6.78101 15.52 6.66701V1.28501H13.58C13.47 1.28501 13.39 1.25801 13.33 1.20401C13.27 1.15001 13.24 1.07201 13.24 0.970007C13.24 0.868007 13.27 0.790008 13.33 0.736008C13.39 0.682008 13.47 0.655008 13.58 0.655008H18.2C18.31 0.655008 18.39 0.682008 18.45 0.736008C18.51 0.790008 18.54 0.868007 18.54 0.970007C18.54 1.07201 18.51 1.15001 18.45 1.20401C18.39 1.25801 18.31 1.28501 18.2 1.28501H16.26V6.66701C16.26 6.78101 16.23 6.87401 16.17 6.94601C16.1 7.01201 16.01 7.04501 15.9 7.04501ZM24.53 6.57701C24.56 6.62501 24.5699 6.67601 24.5699 6.73001C24.5699 6.82001 24.53 6.89501 24.46 6.95501C24.39 7.01501 24.31 7.04501 24.22 7.04501C24.07 7.04501 23.96 6.97301 23.9 6.82901L23.26 5.37101H19.87L19.22 6.82901C19.16 6.97301 19.06 7.04501 18.91 7.04501C18.81 7.04501 18.73 7.01501 18.66 6.95501C18.58 6.88901 18.55 6.81101 18.55 6.72101C18.55 6.67301 18.56 6.62501 18.58 6.57701L21.16 0.853008C21.19 0.769008 21.2499 0.706007 21.3199 0.664007C21.3899 0.622007 21.47 0.601007 21.55 0.601007C21.64 0.601007 21.72 0.625008 21.8 0.673008C21.87 0.715008 21.92 0.775008 21.96 0.853008L24.53 6.57701ZM22.99 4.75901L21.5601 1.52801L20.14 4.75901H22.99ZM30.85 7.07201C30.4 7.07201 29.9701 7.00601 29.5601 6.87401C29.1501 6.73601 28.82 6.55301 28.58 6.32501C28.49 6.24101 28.4399 6.13601 28.4399 6.01001C28.4399 5.92601 28.47 5.85401 28.51 5.79401C28.56 5.72801 28.6201 5.69501 28.6801 5.69501C28.7601 5.69501 28.8499 5.72801 28.9399 5.79401C29.4899 6.22601 30.13 6.44201 30.84 6.44201C31.36 6.44201 31.76 6.34301 32.03 6.14501C32.31 5.94701 32.45 5.66501 32.45 5.29901C32.45 5.08901 32.38 4.92101 32.25 4.79501C32.12 4.66301 31.94 4.55801 31.73 4.48001C31.51 4.40201 31.22 4.32101 30.85 4.23701C30.36 4.12301 29.96 4.00301 29.64 3.87701C29.33 3.75101 29.07 3.57101 28.87 3.33701C28.68 3.10301 28.59 2.79701 28.59 2.41901C28.59 2.05901 28.68 1.74101 28.87 1.46501C29.07 1.18301 29.3399 0.967007 29.6899 0.817007C30.0499 0.661007 30.45 0.583008 30.9 0.583008C31.32 0.583008 31.7099 0.649008 32.0699 0.781008C32.4299 0.907008 32.74 1.09001 32.99 1.33001C33.08 1.42601 33.13 1.53101 33.13 1.64501C33.13 1.72901 33.1101 1.80401 33.0601 1.87001C33.0101 1.93001 32.95 1.96001 32.89 1.96001C32.82 1.96001 32.73 1.92701 32.63 1.86101C32.33 1.62101 32.0601 1.45301 31.8101 1.35701C31.5601 1.26101 31.25 1.21301 30.9 1.21301C30.4 1.21301 30.01 1.31801 29.74 1.52801C29.46 1.73201 29.3199 2.02001 29.3199 2.39201C29.3199 2.71001 29.4401 2.95001 29.6801 3.11201C29.9301 3.26801 30.3001 3.40601 30.8101 3.52601C31.3501 3.65801 31.78 3.78101 32.1 3.89501C32.41 4.00301 32.67 4.16801 32.87 4.39001C33.08 4.61201 33.1801 4.90901 33.1801 5.28101C33.1801 5.63501 33.09 5.94701 32.89 6.21701C32.7 6.48701 32.4199 6.69701 32.0699 6.84701C31.7099 6.99701 31.31 7.07201 30.85 7.07201ZM37.49 7.07201C36.9 7.07201 36.3899 6.94001 35.95 6.67601C35.52 6.41201 35.18 6.03701 34.95 5.55101C34.72 5.06501 34.6 4.49201 34.6 3.83201C34.6 3.16601 34.7099 2.59001 34.9399 2.10401C35.1799 1.61201 35.5099 1.23701 35.9399 0.979008C36.3799 0.715008 36.89 0.583008 37.49 0.583008C38.08 0.583008 38.6 0.715008 39.03 0.979008C39.47 1.23701 39.8 1.61201 40.03 2.10401C40.26 2.59001 40.38 3.16301 40.38 3.82301C40.38 4.48301 40.26 5.05901 40.03 5.55101C39.79 6.03701 39.46 6.41201 39.02 6.67601C38.59 6.94001 38.08 7.07201 37.49 7.07201ZM37.49 6.44201C38.16 6.44201 38.68 6.21701 39.05 5.76701C39.43 5.31101 39.62 4.66301 39.62 3.82301C39.62 2.98301 39.4401 2.33801 39.0601 1.88801C38.6901 1.43801 38.17 1.21301 37.49 1.21301C36.82 1.21301 36.29 1.44101 35.91 1.89701C35.54 2.34701 35.36 2.98901 35.36 3.82301C35.36 4.65701 35.54 5.30201 35.91 5.75801C36.29 6.21401 36.82 6.44201 37.49 6.44201ZM44.63 7.07201C43.8 7.07201 43.18 6.85601 42.75 6.42401C42.32 5.99201 42.11 5.35601 42.11 4.51601V0.988008C42.11 0.874009 42.14 0.784008 42.21 0.718008C42.28 0.646008 42.37 0.610008 42.48 0.610008C42.59 0.610008 42.68 0.646008 42.74 0.718008C42.81 0.784008 42.84 0.874009 42.84 0.988008V4.57901C42.84 5.19701 42.99 5.66201 43.29 5.97401C43.6 6.28601 44.04 6.44201 44.63 6.44201C45.22 6.44201 45.66 6.28601 45.96 5.97401C46.26 5.66201 46.41 5.19701 46.41 4.57901V0.988008C46.41 0.874009 46.45 0.784008 46.51 0.718008C46.58 0.646008 46.67 0.610008 46.78 0.610008C46.9 0.610008 46.99 0.646008 47.05 0.718008C47.12 0.784008 47.15 0.874009 47.15 0.988008V4.51601C47.15 5.35001 46.94 5.98601 46.5 6.42401C46.08 6.85601 45.45 7.07201 44.63 7.07201ZM53.96 6.54101C54 6.60701 54.02 6.67601 54.02 6.74801C54.02 6.83801 53.99 6.91301 53.92 6.97301C53.85 7.02701 53.7701 7.05401 53.6801 7.05401C53.5401 7.05401 53.44 6.99401 53.36 6.87401L52.15 4.96601C52 4.72001 51.83 4.55201 51.67 4.46201C51.5 4.36601 51.27 4.31801 50.98 4.31801H49.85V6.66701C49.85 6.78101 49.82 6.87401 49.75 6.94601C49.68 7.01201 49.6 7.04501 49.49 7.04501C49.37 7.04501 49.28 7.01201 49.22 6.94601C49.15 6.87401 49.12 6.78101 49.12 6.66701V1.01501C49.12 0.907007 49.15 0.820007 49.22 0.754007C49.29 0.688007 49.38 0.655008 49.5 0.655008H51.73C52.42 0.655008 52.94 0.808008 53.3 1.11401C53.67 1.42001 53.85 1.87001 53.85 2.46401C53.85 2.96801 53.71 3.37301 53.41 3.67901C53.12 3.98501 52.71 4.17101 52.17 4.23701C52.32 4.28501 52.46 4.36301 52.58 4.47101C52.7 4.57901 52.8199 4.72901 52.9399 4.92101L53.96 6.54101ZM51.67 3.70601C52.16 3.70601 52.52 3.60401 52.76 3.40001C53.01 3.19601 53.13 2.88701 53.13 2.47301C53.13 2.06501 53.01 1.76201 52.77 1.56401C52.53 1.36601 52.16 1.26701 51.67 1.26701H49.85V3.70601H51.67ZM58.39 7.07201C57.79 7.07201 57.27 6.94301 56.83 6.68501C56.39 6.42101 56.0501 6.04601 55.8101 5.56001C55.5801 5.06801 55.46 4.48901 55.46 3.82301C55.46 3.16301 55.5801 2.59001 55.8101 2.10401C56.0501 1.61201 56.39 1.23701 56.83 0.979008C57.27 0.715008 57.79 0.583008 58.39 0.583008C58.79 0.583008 59.17 0.649008 59.52 0.781008C59.88 0.907008 60.19 1.09001 60.46 1.33001C60.55 1.42001 60.6 1.52501 60.6 1.64501C60.6 1.72901 60.58 1.80401 60.53 1.87001C60.48 1.93001 60.42 1.96001 60.36 1.96001C60.29 1.96001 60.2 1.92701 60.1 1.86101C59.79 1.62101 59.51 1.45301 59.26 1.35701C59.01 1.26101 58.73 1.21301 58.4 1.21301C57.71 1.21301 57.17 1.44101 56.79 1.89701C56.42 2.34701 56.24 2.98901 56.24 3.82301C56.24 4.66301 56.42 5.31101 56.79 5.76701C57.17 6.21701 57.71 6.44201 58.4 6.44201C58.72 6.44201 59.01 6.39401 59.26 6.29801C59.51 6.20201 59.79 6.03401 60.1 5.79401C60.2 5.72801 60.29 5.69501 60.36 5.69501C60.42 5.69501 60.48 5.72501 60.53 5.78501C60.58 5.84501 60.6 5.92001 60.6 6.01001C60.6 6.13001 60.55 6.23501 60.46 6.32501C60.19 6.56501 59.88 6.75101 59.52 6.88301C59.17 7.00901 58.79 7.07201 58.39 7.07201ZM62.61 7.00001C62.5 7.00001 62.41 6.96701 62.34 6.90101C62.27 6.83501 62.24 6.74801 62.24 6.64001V1.01501C62.24 0.907007 62.27 0.820007 62.34 0.754007C62.41 0.688007 62.5 0.655008 62.61 0.655008H65.98C66.09 0.655008 66.17 0.682008 66.23 0.736008C66.29 0.790008 66.3199 0.865008 66.3199 0.961008C66.3199 1.05701 66.29 1.13201 66.23 1.18601C66.17 1.24001 66.09 1.26701 65.98 1.26701H62.97V3.47201H65.8C65.91 3.47201 65.9901 3.49901 66.05 3.55301C66.11 3.60701 66.14 3.68201 66.14 3.77801C66.14 3.87401 66.11 3.94901 66.05 4.00301C65.9901 4.05701 65.91 4.08401 65.8 4.08401H62.97V6.38801H65.98C66.09 6.38801 66.17 6.41501 66.23 6.46901C66.29 6.51701 66.3199 6.59201 66.3199 6.69401C66.3199 6.79001 66.29 6.86501 66.23 6.91901C66.17 6.97301 66.09 7.00001 65.98 7.00001H62.61Z" fill="#828282"/>
</svg>
